<svg width="24" height="24" viewBox="0 0 24 24" fill="none" xmlns="http://www.w3.org/2000/svg">
<rect x="0.5" y="0.5" width="23" height="23" stroke="#C9B693"/>
<path d="M19.0095 17.0178L17.6678 19.263L17.3393 19.3726C17.0837 18.825 16.819 18.3321 16.5452 17.894C16.2897 17.4377 16.0067 17.0087 15.6964 16.6071C15.3861 16.1873 15.0484 15.7766 14.6833 15.375C14.3365 14.9734 13.9623 14.5627 13.5607 14.1428C12.7758 13.3031 11.9361 12.5274 11.0417 11.8155C10.1655 11.0853 9.32581 10.3095 8.52264 9.48808C8.28534 10.0722 8.05716 10.7476 7.83812 11.5143C7.63733 12.2627 7.53693 12.9563 7.53693 13.5952C7.53693 14.3436 7.71034 14.9277 8.05716 15.3476C8.40399 15.7674 8.86034 16.1873 9.42621 16.6071L7.94764 19.2357L7.70121 19.3726C7.35439 19.117 7.04407 18.8706 6.77026 18.6333C6.51471 18.396 6.29566 18.1404 6.11312 17.8666C5.93059 17.5928 5.79368 17.2916 5.70241 16.9631C5.61114 16.6162 5.56551 16.2146 5.56551 15.7583C5.56551 15.2472 5.63852 14.7452 5.78455 14.2524C5.93059 13.7412 6.08574 13.2393 6.25003 12.7464C6.41431 12.2536 6.56947 11.7607 6.7155 11.2678C6.86153 10.7567 6.93455 10.2365 6.93455 9.70713C6.93455 9.34205 6.90717 9.03174 6.85241 8.77618C6.79765 8.50237 6.72463 8.25594 6.63336 8.0369C6.54209 7.7996 6.41431 7.5623 6.25003 7.325C6.104 7.0877 5.93971 6.82301 5.75717 6.53095C5.61114 6.3119 5.46511 6.09286 5.31908 5.87381C5.17305 5.65476 5.06352 5.41746 4.99051 5.16191L6.35955 2.94406L6.7155 2.69763C6.87979 3.35477 7.25399 4.0758 7.83812 4.86072C8.4405 5.64564 9.11589 6.4123 9.8643 7.16071C10.6127 7.90912 11.3702 8.62102 12.1369 9.29642C12.9036 9.95356 13.5607 10.4829 14.1083 10.8845C14.1448 10.8845 14.1722 10.8936 14.1905 10.9119C14.2087 10.9119 14.227 10.9119 14.2452 10.9119C14.5008 10.9119 14.7472 10.8389 14.9845 10.6928C15.2401 10.5468 15.4682 10.3643 15.669 10.1452C15.8698 9.90792 16.0341 9.65237 16.1619 9.37856C16.2897 9.10475 16.3536 8.84007 16.3536 8.58452C16.3536 8.10991 16.244 7.74484 16.025 7.48928C15.8059 7.21547 15.5413 6.9873 15.2309 6.80476C14.9389 6.60397 14.6377 6.40317 14.3274 6.20238C14.0353 6.00159 13.8071 5.71865 13.6429 5.35357L14.8476 2.97144L15.2036 2.77977C15.3496 3.21787 15.6052 3.57382 15.9702 3.84763C16.3536 4.12144 16.7369 4.39524 17.1202 4.66905C17.5218 4.92461 17.8686 5.2258 18.1607 5.57262C18.471 5.91945 18.6262 6.40317 18.6262 7.02381C18.6262 7.48015 18.5075 7.95476 18.2702 8.44761C18.0512 8.92221 17.7774 9.39681 17.4488 9.87142C17.1202 10.3278 16.7643 10.7567 16.3809 11.1583C15.9976 11.5599 15.6417 11.9067 15.3131 12.1988C15.5321 12.3996 15.8242 12.719 16.1893 13.1571C16.5726 13.577 16.9468 14.0333 17.3119 14.5262C17.6952 15.0008 18.042 15.4662 18.3524 15.9226C18.6627 16.3789 18.8817 16.744 19.0095 17.0178Z" fill="#C9B693"/>
</svg>
