<svg width="47" height="31" viewBox="0 0 47 31" fill="none" xmlns="http://www.w3.org/2000/svg">
<path d="M9.25 6.75H37.25C42.0825 6.75 46 10.6675 46 15.5C46 20.3325 42.0825 24.25 37.25 24.25H9.25C4.41751 24.25 0.5 20.3325 0.5 15.5C0.5 10.6675 4.41751 6.75 9.25 6.75Z" stroke="#C9B693"/>
<circle cx="15.5" cy="15.5" r="15.5" fill="#C9B693"/>
<path d="M15.5 18.5C16.3333 18.5 17.0417 18.2083 17.625 17.625C18.2083 17.0417 18.5 16.3333 18.5 15.5C18.5 14.6667 18.2083 13.9583 17.625 13.375C17.0417 12.7917 16.3333 12.5 15.5 12.5C14.6667 12.5 13.9583 12.7917 13.375 13.375C12.7917 13.9583 12.5 14.6667 12.5 15.5C12.5 16.3333 12.7917 17.0417 13.375 17.625C13.9583 18.2083 14.6667 18.5 15.5 18.5ZM15.5 20.5C14.1167 20.5 12.9375 20.0125 11.9625 19.0375C10.9875 18.0625 10.5 16.8833 10.5 15.5C10.5 14.1167 10.9875 12.9375 11.9625 11.9625C12.9375 10.9875 14.1167 10.5 15.5 10.5C16.8833 10.5 18.0625 10.9875 19.0375 11.9625C20.0125 12.9375 20.5 14.1167 20.5 15.5C20.5 16.8833 20.0125 18.0625 19.0375 19.0375C18.0625 20.0125 16.8833 20.5 15.5 20.5ZM8.5 16.5H4.5V14.5H8.5V16.5ZM26.5 16.5H22.5V14.5H26.5V16.5ZM14.5 8.5V4.5H16.5V8.5H14.5ZM14.5 26.5V22.5H16.5V26.5H14.5ZM9.9 11.25L7.375 8.825L8.8 7.35L11.2 9.85L9.9 11.25ZM22.2 23.65L19.775 21.125L21.1 19.75L23.625 22.175L22.2 23.65ZM19.75 9.9L22.175 7.375L23.65 8.8L21.15 11.2L19.75 9.9ZM7.35 22.2L9.875 19.775L11.25 21.1L8.825 23.625L7.35 22.2Z" fill="white"/>
</svg>
