<svg width="47" height="31" viewBox="0 0 47 31" fill="none" xmlns="http://www.w3.org/2000/svg">
<path d="M9.25 6.75H37.25C42.0825 6.75 46 10.6675 46 15.5C46 20.3325 42.0825 24.25 37.25 24.25H9.25C4.41751 24.25 0.5 20.3325 0.5 15.5C0.5 10.6675 4.41751 6.75 9.25 6.75Z" stroke="#FFF3CD"/>
<circle cx="31" cy="15.5" r="15.5" fill="#FFF3CD"/>
<path d="M31 24.5C28.5 24.5 26.375 23.625 24.625 21.875C22.875 20.125 22 18 22 15.5C22 13 22.875 10.875 24.625 9.125C26.375 7.375 28.5 6.5 31 6.5C31.2333 6.5 31.4625 6.50833 31.6875 6.525C31.9125 6.54167 32.1333 6.56667 32.35 6.6C31.6667 7.08333 31.1208 7.7125 30.7125 8.4875C30.3042 9.2625 30.1 10.1 30.1 11C30.1 12.5 30.625 13.775 31.675 14.825C32.725 15.875 34 16.4 35.5 16.4C36.4167 16.4 37.2583 16.1958 38.025 15.7875C38.7917 15.3792 39.4167 14.8333 39.9 14.15C39.9333 14.3667 39.9583 14.5875 39.975 14.8125C39.9917 15.0375 40 15.2667 40 15.5C40 18 39.125 20.125 37.375 21.875C35.625 23.625 33.5 24.5 31 24.5ZM31 22.5C32.4667 22.5 33.7833 22.0958 34.95 21.2875C36.1167 20.4792 36.9667 19.425 37.5 18.125C37.1667 18.2083 36.8333 18.275 36.5 18.325C36.1667 18.375 35.8333 18.4 35.5 18.4C33.45 18.4 31.7042 17.6792 30.2625 16.2375C28.8208 14.7958 28.1 13.05 28.1 11C28.1 10.6667 28.125 10.3333 28.175 10C28.225 9.66667 28.2917 9.33333 28.375 9C27.075 9.53333 26.0208 10.3833 25.2125 11.55C24.4042 12.7167 24 14.0333 24 15.5C24 17.4333 24.6833 19.0833 26.05 20.45C27.4167 21.8167 29.0667 22.5 31 22.5Z" fill="#111827"/>
</svg>
